<?xml version="1.0" encoding="utf-8"?>
<!-- Generator: Adobe Illustrator 24.0.3, SVG Export Plug-In . SVG Version: 6.00 Build 0)  -->
<svg version="1.1" id="Layer_1" xmlns="http://www.w3.org/2000/svg" xmlns:xlink="http://www.w3.org/1999/xlink" x="0px" y="0px"
	 viewBox="0 0 45.2 45.2" style="enable-background:new 0 0 45.2 45.2;" xml:space="preserve">
<style type="text/css">
	.st0{fill:none;stroke:#000000;stroke-width:2;stroke-miterlimit:10;}
</style>
<title>ac-2</title>
<g id="_5dbed4b2-1b39-48ef-97ce-d35a370baef2">
	<path d="M12,14.1L12,14.1c0.1-0.2,0.2-0.3,0.3-0.4l0,0c0.1-0.2,0.3-0.4,0.5-0.6l0,0c0.2-0.2,0.3-0.3,0.5-0.5l0,0
		c0.2-0.2,0.3-0.2,0.4-0.2l0,0c0.3-0.4,0.7-0.6,1.1-0.7l0,0c0.1,0,0.2,0.1,0.2,0.2l0,0c0,0.2-0.1,0.4-0.2,0.5l0,0
		c-0.1,0.2-0.2,0.3-0.3,0.5l0,0V13l0,0c0,0.2-0.1,0.5-0.1,0.7l0,0c0,0.2,0,0.4-0.1,0.7l0,0c0.1-0.3,0.2-0.5,0.3-0.7l0,0
		c0.2-0.2,0.3-0.4,0.5-0.6l0,0c0.2-0.2,0.4-0.3,0.6-0.4l0,0c0.2-0.1,0.4-0.1,0.5,0l0,0c0,0,0.2,0.2,0.3,0.5l0,0
		c0.1,0.3,0.3,0.6,0.5,1l0,0c0.2,0.4,0.4,0.8,0.6,1.3l0,0c0.2,0.4,0.4,0.8,0.5,1.1l0,0c0.2,0.3,0.3,0.7,0.5,1l0,0l1.7,3.6l0,0
		c0.6,1.2,1.2,2.3,1.8,3.5l0,0c0.2,0.3,0.4,0.8,0.7,1.2l0,0c0.3,0.5,0.5,0.9,0.8,1.4l0,0c0.3,0.5,0.5,1,0.8,1.4l0,0
		c0.2,0.4,0.4,0.8,0.6,1.3l0,0l0.1,0.1l-0.1,0.1l0,0c-0.1,0.2-0.1,0.4-0.3,0.6l0,0c-0.1,0.2-0.3,0.4-0.5,0.6l0,0
		c-0.2,0.2-0.3,0.3-0.5,0.4l0,0c-0.1,0.1-0.3,0.1-0.4,0l0,0L23,31.2l0,0c-0.2-0.2-0.3-0.4-0.4-0.6l0,0c-0.2,0.1-0.3,0.2-0.5,0.2l0,0
		L21.9,31l0,0c-0.1-0.1-0.1-0.1-0.2-0.2l0,0c-0.2-0.1-0.3-0.2-0.5-0.3l0,0c-0.2-0.2-0.3-0.3-0.5-0.5l0,0c-0.1-0.2-0.3-0.4-0.4-0.5
		l0,0c-0.1-0.2-0.2-0.4-0.3-0.5l0,0c-0.5-0.8-1.1-1.5-1.6-2.3l0,0c-0.5-0.8-1-1.6-1.5-2.4l0,0c-0.3,0.2-0.6,0.4-1,0.6l0,0l-0.9,0.5
		l0,0c-0.3,0.2-0.6,0.3-0.8,0.4l0,0l-0.6,0.3l0,0l1-1.7l0,0c-0.5,0.3-1.1,0.6-1.6,0.9l0,0c-0.5,0.3-1,0.6-1.5,0.9l0,0l-0.3,1.5l0,0
		c-0.1,0.5-0.2,1-0.3,1.5l0,0c-0.1,0.5-0.2,1-0.2,1.4l0,0c-0.1,0.4-0.2,0.8-0.4,1.2l0,0l0,0l0,0l-0.2,0.3l0,0
		c-0.1,0.1-0.1,0.3-0.2,0.4l0,0l-0.2,0.3l0,0c-0.1,0.1-0.2,0.3-0.4,0.4l0,0c-0.1,0.1-0.2,0.2-0.4,0.2l0,0c-0.1,0-0.2,0-0.3-0.1l0,0
		c0-0.4,0-0.9,0-1.3l0,0c0-0.4,0.1-0.9,0.2-1.3l0,0c-0.2,0.4-0.6,0.8-1,1l0,0l-0.2,0.1l0,0c-0.1,0-0.2,0-0.3-0.1l0,0
		c-0.1-0.2-0.1-0.4-0.1-0.6l0,0c0-0.3,0.1-0.7,0.2-1l0,0c0.1-0.4,0.2-0.8,0.3-1.2l0,0c0.1-0.4,0.2-0.8,0.4-1.2l0,0
		c0.1-0.4,0.2-0.7,0.3-1l0,0c0.1-0.3,0.1-0.4,0.2-0.5l0,0c0-0.2,0.1-0.3,0.2-0.5l0,0L9,25.2l0,0c0-0.1,0.1-0.2,0.1-0.3l0,0
		c0-0.1,0-0.2,0.1-0.3l0,0c0.3-1.6,0.7-3.2,1.1-4.8l0,0c0.4-1.6,0.8-3.2,1.3-4.7l0,0l0,0l0,0c0-0.1,0.1-0.1,0.1-0.2l0,0l0.1-0.2l0,0
		c0-0.1,0.1-0.2,0.1-0.4l0,0C11.9,14.3,12,14.2,12,14.1z M15,15.1L15,15.1c-0.7,1.4-1.2,2.9-1.6,4.4l0,0c-0.4,1.5-0.8,3-1.2,4.5l0,0
		c0.5-0.3,1-0.5,1.5-0.7l0,0c0.5-0.2,1-0.4,1.6-0.6l0,0l0.3-0.1l0,0c0.1-0.1,0.3-0.1,0.4-0.2l0,0c0,0,0-0.1,0-0.1l0,0l-0.5-0.9l0,0
		c-0.2-0.3-0.3-0.6-0.5-1l0,0c-0.1-0.3-0.2-0.7-0.3-1l0,0c-0.1-0.3-0.1-0.7,0-1l0,0c0.1-0.1,0.2-0.3,0.3-0.5l0,0
		c0.1-0.2,0.2-0.4,0.4-0.5l0,0l-0.2-0.5l0,0c0-0.2-0.1-0.3-0.1-0.5l0,0c0-0.3,0.1-0.6,0.2-0.8l0,0L15,15.1z M36.9,12.4l0.4,0.5l0,0
		c0.1-0.2,0.2-0.4,0.3-0.5l0,0c0.1-0.2,0.2-0.3,0.4-0.5l0,0c0-0.1,0,0,0,0.2l0,0c-0.1,0.1-0.1,0.3-0.1,0.4l0,0c0,0.2,0,0.5,0,0.7
		l0,0c0,0.3,0,0.6,0,0.7l0,0c0,0.5,0.1,1,0.2,1.5l0,0c0.1,0.5,0.1,1,0.2,1.5l0,0l0,0l0,0l0,0l0,0l0,0l0,0l0,0l0,0
		c-0.1,0.2-0.1,0.4-0.2,0.5l0,0c-0.1,0.2-0.3,0.5-0.5,0.7l0,0c-0.2,0.2-0.3,0.3-0.5,0.5l0,0c-0.1,0.1-0.3,0.1-0.5,0l0,0l0,0l0,0
		c-0.3-0.8-0.8-1.5-1.4-2.1l0,0c-0.6-0.5-1.3-0.9-2.1-1.2l0,0l-0.8,0.8l0,0c0-0.1-0.1-0.1-0.1-0.2l0,0c0,0-0.1,0-0.4,0.1l0,0
		c-0.6,0.5-1,1.1-1.3,1.8l0,0c-0.3,0.7-0.5,1.4-0.5,2.2l0,0c-0.1,0.8-0.1,1.6,0,2.3l0,0c0,0.8,0.1,1.5,0.2,2.3l0,0
		c0,0.2,0.1,0.4,0.1,0.6l0,0c0,0.2,0,0.3,0,0.5l0,0c0.1,0.2,0.1,0.5,0.3,0.7l0,0c0.1,0.2,0.2,0.5,0.3,0.7l0,0c0,0,0,0.1,0,0.1l0,0
		l0,0l0,0c0,0.2-0.1,0.3-0.1,0.5l0,0c0.8,0.4,1.7,0.6,2.7,0.6l0,0c1,0,2-0.2,2.9-0.7l0,0c0.2-0.1,0.4-0.2,0.5-0.4l0,0
		c0.2-0.2,0.3-0.5,0.5-0.7l0,0l0.5-0.7l0,0c0.1-0.1,0.2-0.3,0.3-0.4l0,0c0.1,0,0.1,0.1,0,0.2l0,0c-0.1,0.1-0.1,0.2-0.2,0.4l0,0
		l1.4-1.1l0,0L39,25.3l0,0c0,0.1-0.1,0.2-0.1,0.2l0,0c-0.1,0.1-0.2,0.3-0.3,0.4l0,0l-0.2,0.2l0,0l-0.2,0.2l0,0
		c0,0.1-0.1,0.2-0.3,0.3l0,0c-0.4,0.5-0.8,1.1-1.3,1.6l0,0c-0.4,0.5-0.9,0.9-1.5,1.2l0,0c-0.8,0.4-1.6,0.6-2.5,0.8l0,0
		c-0.9,0.1-1.7,0-2.6-0.2l0,0c-0.8-0.2-1.6-0.6-2.3-1.2l0,0c-0.7-0.6-1.2-1.4-1.5-2.3l0,0c-0.3-1-0.5-2.1-0.5-3.2l0,0
		c0-1.1,0-2.2,0.3-3.3l0,0c0.2-1,0.6-2.1,1.2-3l0,0c0.5-0.9,1.1-1.7,1.9-2.5l0,0c0.5-0.5,1-0.8,1.6-1.1l0,0c0.6-0.2,1.2-0.3,1.8-0.3
		l0,0c0.6,0,1.2,0.1,1.8,0.3l0,0c0.6,0.2,1.1,0.5,1.6,0.9l0,0c0-0.3,0.1-0.7,0.2-1l0,0C36.4,13,36.6,12.7,36.9,12.4L36.9,12.4z
		 M39.3,24.9L39.3,24.9L39.3,24.9C39.3,24.8,39.3,24.7,39.3,24.9z"/>
</g>
<circle class="st0" cx="22.6" cy="22.6" r="21.6"/>
</svg>
