<svg xml:space="preserve" style="enable-background:new 0 0 1024 1024;" viewBox="0 0 1024 1024" y="0px" x="0px" xmlns:xlink="http://www.w3.org/1999/xlink" xmlns="http://www.w3.org/2000/svg" version="1.1">
<style type="text/css">
	.st0{display:none;}
	.st1{display:inline;fill:#F2C87E;}
	.st2{display:inline;fill:#F9F6E8;}
	.st3{display:inline;}
	.st4{clip-path:url(#XMLID_30_);fill:#F9F6E8;}
	.st5{display:inline;fill:#020202;}
	.st6{fill:#EDF2F4;}
	.st7{fill:#FFFFFF;}
	.st8{fill:#F9F6E8;}
	.st9{display:inline;fill:#3D2222;}
	.st10{display:inline;fill:#FF8581;}
	.st11{display:none;fill:#D6D4D2;}
	.st12{clip-path:url(#XMLID_31_);fill:#45423E;}
	.st13{fill:#45423E;}
	.st14{fill:#FF8581;}
	.st15{fill:#3D2222;}
	.st16{fill:#1BADED;stroke:#231815;stroke-width:5;stroke-miterlimit:10;}
	.st17{fill:#F4AB87;}
	.st18{clip-path:url(#XMLID_32_);fill:#FFD7A0;}
	.st19{fill:#FFD7A0;}
	.st20{fill:#D67D4A;}
	.st21{fill:#FC7F7E;}
	.st22{fill:#F4CF67;}
	.st23{fill:#994C0F;}
	.st24{fill:#EE8E2D;}
	.st25{fill:#F4F3F2;}
	.st26{fill:#BECEEA;}
	.st27{fill:#DA7A4A;}
	.st28{fill:#ADA3C1;}
	.st29{fill:#403D45;}
	.st30{fill:#F4BB87;}
	.st31{clip-path:url(#XMLID_33_);fill:#F7F7F7;}
	.st32{clip-path:url(#XMLID_34_);fill:#F7F7F7;}
	.st33{clip-path:url(#XMLID_35_);fill:#F7F7F7;}
	.st34{clip-path:url(#XMLID_36_);fill:#F7F7F7;}
	.st35{clip-path:url(#XMLID_37_);fill:#F7F7F7;}
	.st36{clip-path:url(#XMLID_38_);fill:#F7F7F7;}
	.st37{clip-path:url(#XMLID_39_);fill:#F7F7F7;}
	.st38{clip-path:url(#XMLID_40_);fill:#F7F7F7;}
	.st39{fill:#F9F6DB;}
	.st40{fill:#B2AD9D;}
	.st41{fill:#DFD8BD;}
	.st42{fill:#F9A230;}
	.st43{clip-path:url(#XMLID_41_);fill:#F9F6E8;}
	.st44{fill:#D28957;}
	.st45{clip-path:url(#XMLID_42_);fill:#F7F6F5;}
	.st46{fill:#F4C295;}
	.st47{fill:#AD84B7;}
	.st48{clip-path:url(#XMLID_43_);fill:#FF8581;}
	.st49{clip-path:url(#XMLID_44_);fill:#FF8581;}
	.st50{clip-path:url(#XMLID_45_);fill:#944906;}
	.st51{fill:#944906;}
	.st52{clip-path:url(#XMLID_47_);fill:#45423E;}
	.st53{fill:#D3D1C9;}
	.st54{clip-path:url(#XMLID_48_);fill:#45423E;}
	.st55{clip-path:url(#XMLID_49_);fill:#45423E;}
	.st56{fill:#656466;}
	.st57{fill:#F9F9F9;}
	.st58{fill:#F1C28A;}
	.st59{clip-path:url(#XMLID_52_);fill:#EDDDEA;}
	.st60{clip-path:url(#XMLID_53_);fill:#EDDDEA;}
	.st61{clip-path:url(#XMLID_54_);fill:#FFFFFF;}
	.st62{fill:#E4C2DC;}
	.st63{clip-path:url(#XMLID_55_);fill:#3D200A;}
	.st64{clip-path:url(#XMLID_55_);fill:#FFFFFF;}
	.st65{clip-path:url(#XMLID_56_);fill:#3D200A;}
	.st66{clip-path:url(#XMLID_56_);fill:#FFFFFF;}
	.st67{fill:#3D200A;}
</style>
<g class="st0" id="柯基">
	<circle r="512" cy="512" cx="512" class="st1"></circle>
	<path d="M665.8,821.7l177.7-158.6c18.6-16.6,4.6-44-22.5-132.9H203c-27.1,88.9-41.1,116.2-22.5,132.9l177.7,158.6
		C441.7,896.2,582.3,896.2,665.8,821.7z" class="st2"></path>
	<g class="st3">
		<defs>
			<path d="M766.7,352.1L712.6,93c-1.9-14.3-19.2-20.1-29.4-9.9c-32.2,32.1-84.9,95.7-94.6,174.4l-76.5-3l-76.5,3
				C426,178.7,373.3,115.2,341.1,83c-10.2-10.2-27.5-4.3-29.4,9.9l-54.8,260.4c-106.7,187.2-62.7,246.2-62.7,246.2l148,59.1
				c21.7,8.7,39,25.6,48.5,47C438,812.2,512.2,808.8,512.2,808.8s75.9,3.4,123.1-107c8.2-19.1,23.8-34.1,43.1-41.8l151.8-60.5
				C830.1,599.5,873.4,539.3,766.7,352.1z" id="XMLID_3_"></path>
		</defs>
		<use style="overflow:visible;fill:#FE8F24;" xlink:href="#XMLID_3_"></use>
		<clipPath id="XMLID_30_">
			<use style="overflow:visible;" xlink:href="#XMLID_3_"></use>
		</clipPath>
		<path d="M462.7,226.2c0,0,49.3,215.8,41.7,349.9c-0.4,7.4,5.4,13.6,12.8,13.6h0c7,0,12.7-5.6,12.8-12.5
			c1-50.8,6.7-243.6,34.6-347L462.7,226.2z" class="st4"></path>
		<path d="M652.9,721c0,77.1-65.6,101.7-136.2,101.7s-136.1-26.4-136.1-103.5s65.6-175.8,136.1-175.8
			S652.9,643.9,652.9,721z" class="st4"></path>
	</g>
	<path d="M595.7,693.4c0,13.6-20.7,20.7-36.7,29.4c-15,8.1-24.6,18.3-47,18.3c-22,0-29.6-8.8-44.6-16.6
		c-16.5-8.7-39.1-17.2-39.1-31c0-26.3,37.5-34.2,83.7-34.2S595.7,667.1,595.7,693.4z" class="st5"></path>
	<g class="st3">
		<g>
			<circle r="38.7" cy="510.7" cx="364.1" class="st6"></circle>
			<ellipse ry="35.4" rx="25.1" cy="510.7" cx="364.1"></ellipse>
			<ellipse ry="9.3" rx="10.1" cy="490.3" cx="354" class="st7"></ellipse>
			
				<ellipse ry="6.9" rx="6.3" cy="536.5" cx="376.8" class="st7" transform="matrix(0.6593 -0.7519 0.7519 0.6593 -275.0017 466.1347)"></ellipse>
		</g>
		<g>
			<circle r="38.7" cy="510.7" cx="659.9" class="st6"></circle>
			<ellipse ry="35.4" rx="25.1" cy="510.7" cx="659.9"></ellipse>
			<ellipse ry="9.3" rx="10.1" cy="490.3" cx="649.8" class="st7"></ellipse>
			
				<ellipse ry="6.9" rx="6.3" cy="536.5" cx="672.7" class="st7" transform="matrix(0.6593 -0.7519 0.7519 0.6593 -174.1992 688.5884)"></ellipse>
		</g>
	</g>
	<g class="st3">
		<path d="M358.2,134.1c14.9,33,33.5,86.5,29.8,141.9l-70,30l18.9-168.5C338.2,126.2,353.6,123.7,358.2,134.1z" class="st8"></path>
		<path d="M665.8,134.1c-14.9,33-33.5,86.5-29.8,141.9l70,30l-18.9-168.5C685.8,126.2,670.4,123.7,665.8,134.1z" class="st8"></path>
	</g>
	<path d="M602.3,759.7c0,28.1-21.5,52.3-52.5,63.3c-11.5,4.1-24.3,6.4-37.8,6.4c-13.5,0-26.3-2.3-37.8-6.4
		c-31-11-52.5-35.2-52.5-63.3c0-5.5,0.9-10.8,2.4-16c4.5,14.8,15.1,27.7,29.6,37.2c9.2,6,19.9,10.6,31.7,13.4
		c8.4,2,17.3,3.1,26.6,3.1c9.2,0,18.2-1.1,26.6-3.1c11.8-2.8,22.5-7.4,31.7-13.4c14.5-9.5,25.1-22.5,29.6-37.2
		C601.4,748.8,602.3,754.2,602.3,759.7z" class="st9"></path>
	<path d="M549.9,807.8v13c0,20.8-17,37.9-37.9,37.9s-37.9-17-37.9-37.9v-15.6c12.4,5,26.5,7.8,41.5,7.8
		C527.7,813,539.3,811.2,549.9,807.8z" class="st10"></path>
	<g class="st3">
		<path d="M400.3,426c0,7.3-17.9,6.5-37.5,6.5s-37.5,0.8-37.5-6.5s17.9-16,37.5-16S400.3,418.7,400.3,426z" class="st8"></path>
		<path d="M698.8,426c0,7.3-17.9,6.5-37.5,6.5s-37.5,0.8-37.5-6.5s17.9-16,37.5-16S698.8,418.7,698.8,426z" class="st8"></path>
	</g>
</g>
<g id="哈士奇">
	<circle r="512" cy="512" cx="512" class="st11"></circle>
	<g>
		<g>
			<defs>
				<path d="M788.4,421.2c-31.1-128.4-157.8-180.4-157.8-180.4c-25.8-10.4-111-13.2-118.3-13.4l0,0c0,0-0.1,0-0.3,0
					c-0.2,0-0.3,0-0.3,0l0,0c-7.3,0.2-92.5,3-118.3,13.4c0,0-126.7,51.9-157.8,180.4c0,0-104.2,259.4,146.1,356.2
					c0,0,45,80.1,122.4,91l0,0.4c2.5,0.2,4.9,0.2,7.3,0.2c0.2,0,0.3,0,0.5,0c0.2,0,0.3,0,0.5,0c2.4,0,4.8,0,7.3-0.2l0-0.4
					c77.4-10.9,122.4-91,122.4-91C892.5,680.6,788.4,421.2,788.4,421.2z" id="XMLID_1_"></path>
			</defs>
			<use style="overflow:visible;fill:#F9F6E8;" xlink:href="#XMLID_1_"></use>
			<clipPath id="XMLID_31_">
				<use style="overflow:visible;" xlink:href="#XMLID_1_"></use>
			</clipPath>
			<path d="M886.9,331.6c0-35.4-19.9-241.4-19.9-241.4L772.5-11.6L512,220.7L251.5-11.6L157,90.3
				c0,0-19.9,205.9-19.9,241.4s64.2,333.6,64.2,333.6l-2.2-10.3c0,0,34.3-124,132.3-157.2c0,0,49.1-2.2,115.5-128.4
				c0,0,37.8-37.6,40,44.3L500.2,593h2.9h17.7h2.9l13.3-179.4c2.2-81.9,40-44.3,40-44.3c66.5,126.2,115.5,128.4,115.5,128.4
				c98,33.2,132.3,157.2,132.3,157.2l-2.2,10.3C822.7,665.3,886.9,367.1,886.9,331.6z" class="st12"></path>
		</g>
		<path d="M620.9,226.4c0,0,56.6-64.6,73.8-118.2s117.8-19.9,86.9,208.7c0,0-5.8,73,9,110.3l-195.1-193L620.9,226.4z" class="st13"></path>
		<path d="M402.8,226.4c0,0-56.6-64.6-73.8-118.2c-17.2-53.6-117.8-19.9-86.9,208.7c0,0,5.8,73-9,110.3l195.1-193
			L402.8,226.4z" class="st13"></path>
		<path d="M552.9,618c0,18.1-20.5,36.3-40.5,36.3c-20,0-41.2-17.9-41.2-36s21.2-28.5,41.2-28.5
			C532.4,589.8,552.9,599.9,552.9,618z" class="st14"></path>
		<path d="M649.7,666.9c0,42.8-32.8,79.7-80,96.5c-17.5,6.3-37.1,9.7-57.7,9.7s-40.1-3.5-57.7-9.7
			c-47.2-16.8-80-53.7-80-96.5c0-8.4,1.3-16.5,3.7-24.4c6.9,22.5,23,42.3,45.1,56.8c14,9.1,30.4,16.2,48.4,20.4
			c12.8,3,26.4,4.7,40.5,4.7c14.1,0,27.7-1.6,40.5-4.7c18-4.3,34.4-11.3,48.4-20.4c22.1-14.5,38.3-34.2,45.1-56.8
			C648.4,650.4,649.7,658.5,649.7,666.9z" class="st15"></path>
		<path d="M569.7,740.3v19.8c0,31.8-26,57.7-57.7,57.7s-57.7-26-57.7-57.7v-23.7c19,7.6,40.5,11.9,63.3,11.9
			C536,748.3,553.7,745.5,569.7,740.3z" class="st14"></path>
		<g>
			<circle r="31.9" cy="520.4" cx="403.4" class="st16"></circle>
			<ellipse ry="22.7" rx="16.1" cy="519.2" cx="403.4"></ellipse>
			<ellipse ry="5.9" rx="6.5" cy="506.1" cx="393.7" class="st7"></ellipse>
		</g>
		<g>
			<circle r="31.9" cy="520.4" cx="620.6" class="st16"></circle>
			<ellipse ry="22.7" rx="16.1" cy="519.2" cx="620.6"></ellipse>
			<ellipse ry="5.9" rx="6.5" cy="506.1" cx="610.9" class="st7"></ellipse>
		</g>
		<path d="M679.4,230.1c0,0,69.7-186.6,74.2,0v53.1L679.4,230.1z" class="st14"></path>
		<path d="M344.6,230.1c0,0-69.7-186.6-74.2,0v53.1L344.6,230.1z" class="st14"></path>
	</g>
</g>
<g class="st0" id="约克夏">
	<circle r="512" cy="512" cx="512" class="st17"></circle>
	<g class="st3">
		<g>
			<defs>
				<path d="M792.2,500.2c-21.4,182.2-112.8,332.3-279.8,332.3S254.1,691,232.6,500.2
					c-20.5-182.4,119.9-243.1,279.9-239C680.7,265.5,813.6,317.9,792.2,500.2z" id="XMLID_4_"></path>
			</defs>
			<use style="overflow:visible;fill:#D67D4A;" xlink:href="#XMLID_4_"></use>
			<clipPath id="XMLID_32_">
				<use style="overflow:visible;" xlink:href="#XMLID_4_"></use>
			</clipPath>
			<path d="M626.2,781.6c0,56.3-50.9,72.8-113.6,72.8s-113.6-16.5-113.6-72.8c0-56.3,50.9-118.7,113.6-118.7
				S626.2,725.3,626.2,781.6z" class="st18"></path>
		</g>
		<path d="M532.2,709.1l18.4-26.7c10.9-15.9-0.4-37.5-19.7-37.5h-36.7c-19.3,0-30.6,21.6-19.7,37.5l18.4,26.7
			C502.4,722.9,522.7,722.9,532.2,709.1z"></path>
		<g>
			<g>
				
					<ellipse ry="31.8" rx="33.8" cy="536.6" cx="622.3" class="st7" transform="matrix(9.741481e-02 -0.9952 0.9952 9.741481e-02 27.6362 1103.616)"></ellipse>
				
					<ellipse ry="23.6" rx="28.3" cy="532.3" cx="622.7" transform="matrix(9.741481e-02 -0.9952 0.9952 9.741481e-02 32.2753 1100.1688)"></ellipse>
				
					<ellipse ry="9.3" rx="11.1" cy="521.3" cx="607.1" class="st7" transform="matrix(9.741481e-02 -0.9952 0.9952 9.741481e-02 29.1059 1074.7317)"></ellipse>
				
					<ellipse ry="6.2" rx="7.4" cy="554.7" cx="630.9" class="st7" transform="matrix(9.741481e-02 -0.9952 0.9952 9.741481e-02 17.3868 1128.5129)"></ellipse>
			</g>
			<g>
				
					<ellipse ry="31.8" rx="33.8" cy="537.1" cx="402.8" class="st7" transform="matrix(9.741481e-02 -0.9952 0.9952 9.741481e-02 -170.9271 885.6749)"></ellipse>
				
					<ellipse ry="23.6" rx="28.3" cy="532.8" cx="403.3" transform="matrix(9.741481e-02 -0.9952 0.9952 9.741481e-02 -166.288 882.2278)"></ellipse>
				
					<ellipse ry="9.3" rx="11.1" cy="521.8" cx="387.6" class="st7" transform="matrix(9.741481e-02 -0.9952 0.9952 9.741481e-02 -169.4573 856.7906)"></ellipse>
				
					<ellipse ry="6.2" rx="7.4" cy="555.2" cx="411.4" class="st7" transform="matrix(9.741481e-02 -0.9952 0.9952 9.741481e-02 -181.1765 910.5718)"></ellipse>
			</g>
		</g>
		<g>
			<path d="M433,462.2c0,0-18.5-60.9-106.2-17.1c0,0-26.4,22.4-34.9,74.8c-0.3,1.8,1.9,2.9,3.2,1.6
				c11.4-11.6,44.2-43.3,68.8-48.1c0,0-36.5,13.6-34.7,55.1c0.1,2,2.8,2.5,3.5,0.6c4.4-11.9,16-32.7,44-41.1
				C416.8,475.9,432.4,481.4,433,462.2z" class="st19"></path>
			<path d="M592.1,462.2c0,0,18.5-60.9,106.2-17.1c0,0,26.4,22.4,34.9,74.8c0.3,1.8-1.9,2.9-3.2,1.6
				c-11.4-11.6-44.2-43.3-68.8-48.1c0,0,36.5,13.6,34.7,55.1c-0.1,2-2.8,2.5-3.5,0.6c-4.4-11.9-16-32.7-44-41.1
				C608.3,475.9,592.7,481.4,592.1,462.2z" class="st19"></path>
		</g>
		<path d="M574.6,636.9c0,0,84.3,153.2,67.2,257.5c-17.2,104.3,51.5-57.4,48.6-128.7s28,107.7,24.3,134.5
			c-4.1,29.8,35.1-95.8,18.2-185.8s0-31.4,0-31.4l36.1,88.6c0,0,11.6-124.5-20.1-137.9s9.1-5.4,9.1-5.4s44.5,7.5,53.6,30.5
			c0,0,2.1-41.8-52-58.4L574.6,636.9z" class="st20"></path>
		<path d="M443.1,639.8c0,0-84.3,153.2-67.2,257.5s-51.5-57.4-48.6-128.7s-28,107.7-24.3,134.5
			c4.1,29.8-35.1-95.8-18.2-185.8s0-31.4,0-31.4l-36.1,88.6c0,0-11.6-124.5,20.1-137.9c31.6-13.4-9.1-5.4-9.1-5.4
			s-44.5,7.5-53.6,30.5c0,0-2.1-41.8,52-58.4L443.1,639.8z" class="st20"></path>
		<g>
			<path d="M632.3,280c0,0,99.6-129.6,190.9-130.8c13.7-0.2,24,12.5,21.2,25.9c-9.3,45-31.1,155.1-54.1,305.6
				C790.4,480.7,734.9,392,632.3,280z" class="st20"></path>
			<path d="M769.8,356.4c3.1-1,63.1,12.9,77.9,76.5c0.2,0.7-0.9,1.2-1.2,0.5c-6.5-14-26.7-46.6-78.5-60.7L769.8,356.4z" class="st20"></path>
			<path d="M776.6,317.7c3.1-1,63.1,12.9,77.9,76.5c0.2,0.7-0.9,1.2-1.2,0.5c-6.5-14-26.7-46.6-78.5-60.7L776.6,317.7z" class="st20"></path>
			<path d="M780.5,279c3.1-1,63.1,12.9,77.9,76.5c0.2,0.7-0.9,1.2-1.2,0.5c-6.5-14-26.7-46.6-78.5-60.7L780.5,279z" class="st20"></path>
			<path d="M798.3,190.1c-48.3,25.8-88.2,63.3-120.9,111c29.3,17.9,51.9,45.5,69.7,80.1c0,0,54.5-99.6,60.7-157.2
				C809.2,212,815.1,183.7,798.3,190.1z" class="st21"></path>
		</g>
		<g>
			<path d="M391.7,280c0,0-99.6-129.6-190.9-130.8c-13.7-0.2-24,12.5-21.2,25.9c9.3,45,31.1,155.1,54.1,305.6
				C233.6,480.7,289.1,392,391.7,280z" class="st20"></path>
			<path d="M254.2,356.4c-3.1-1-63.1,12.9-77.9,76.5c-0.2,0.7,0.9,1.2,1.2,0.5c6.5-14,26.7-46.6,78.5-60.7L254.2,356.4
				z" class="st20"></path>
			<path d="M247.4,317.7c-3.1-1-63.1,12.9-77.9,76.5c-0.2,0.7,0.9,1.2,1.2,0.5c6.5-14,26.7-46.6,78.5-60.7L247.4,317.7
				z" class="st20"></path>
			<path d="M243.5,279c-3.1-1-63.1,12.9-77.9,76.5c-0.2,0.7,0.9,1.2,1.2,0.5c6.5-14,26.7-46.6,78.5-60.7L243.5,279z" class="st20"></path>
			<path d="M225.7,190.1c48.3,25.8,88.2,63.3,120.9,111c-29.3,17.9-51.9,45.5-69.7,80.1c0,0-54.5-99.6-60.7-157.2
				C214.8,212,208.9,183.7,225.7,190.1z" class="st21"></path>
		</g>
		<path d="M460.3,758.6c0,0,41,39.3,104.6,0H460.3z"></path>
	</g>
</g>
<g class="st0" id="贵宾犬">
	<circle r="512" cy="512" cx="512" class="st22"></circle>
	<g class="st3">
		<ellipse ry="61.1" rx="56.7" cy="356.2" cx="305.8" class="st23"></ellipse>
		<ellipse ry="61.1" rx="56.7" cy="464.2" cx="293.4" class="st23"></ellipse>
		<ellipse ry="61.1" rx="56.7" cy="547.5" cx="249.1" class="st23"></ellipse>
		<ellipse ry="61.1" rx="56.7" cy="630.9" cx="277.8" class="st23"></ellipse>
		<ellipse ry="61.1" rx="56.7" cy="602.8" cx="228.3" class="st23"></ellipse>
		<ellipse ry="61.1" rx="56.7" cy="724.9" cx="125.5" class="st23"></ellipse>
		<ellipse ry="61.1" rx="56.7" cy="707.1" cx="267.2" class="st23"></ellipse>
		<ellipse ry="61.1" rx="56.7" cy="751" cx="258.2" class="st23"></ellipse>
		<ellipse ry="61.1" rx="56.7" cy="689.9" cx="215.7" class="st23"></ellipse>
		<ellipse ry="61.1" rx="56.7" cy="308.2" cx="321.9" class="st23"></ellipse>
		<ellipse ry="61.1" rx="56.7" cy="773.4" cx="180.1" class="st23"></ellipse>
		<ellipse ry="61.1" rx="56.7" cy="679" cx="135.8" class="st23"></ellipse>
		<ellipse ry="61.1" rx="56.7" cy="630.9" cx="171.6" class="st23"></ellipse>
		<ellipse ry="61.1" rx="56.7" cy="569.8" cx="171.6" class="st23"></ellipse>
		<ellipse ry="61.1" rx="56.7" cy="508.8" cx="228.3" class="st23"></ellipse>
		<ellipse ry="61.1" rx="56.7" cy="464.2" cx="210.5" class="st23"></ellipse>
		<ellipse ry="61.1" rx="56.7" cy="552.5" cx="299.1" class="st23"></ellipse>
		<ellipse ry="61.1" rx="56.7" cy="388.2" cx="249.1" class="st23"></ellipse>
		<ellipse ry="61.1" rx="56.7" cy="362.8" cx="718.2" class="st23"></ellipse>
		<ellipse ry="61.1" rx="56.7" cy="470.9" cx="730.6" class="st23"></ellipse>
		<ellipse ry="61.1" rx="56.7" cy="554.2" cx="774.9" class="st23"></ellipse>
		<ellipse ry="61.1" rx="56.7" cy="637.6" cx="746.2" class="st23"></ellipse>
		<ellipse ry="61.1" rx="56.7" cy="609.5" cx="795.7" class="st23"></ellipse>
		<ellipse ry="61.1" rx="56.7" cy="731.6" cx="898.5" class="st23"></ellipse>
		<ellipse ry="61.1" rx="56.7" cy="713.8" cx="756.8" class="st23"></ellipse>
		<ellipse ry="61.1" rx="56.7" cy="757.6" cx="765.8" class="st23"></ellipse>
		<ellipse ry="61.1" rx="56.7" cy="696.6" cx="808.3" class="st23"></ellipse>
		<ellipse ry="61.1" rx="56.7" cy="314.9" cx="702.1" class="st23"></ellipse>
		<ellipse ry="61.1" rx="56.7" cy="780.1" cx="843.9" class="st23"></ellipse>
		<ellipse ry="61.1" rx="56.7" cy="685.6" cx="888.2" class="st23"></ellipse>
		<ellipse ry="61.1" rx="56.7" cy="637.6" cx="852.4" class="st23"></ellipse>
		<ellipse ry="61.1" rx="56.7" cy="576.5" cx="852.4" class="st23"></ellipse>
		<ellipse ry="61.1" rx="56.7" cy="515.5" cx="795.7" class="st23"></ellipse>
		<ellipse ry="61.1" rx="56.7" cy="470.9" cx="813.5" class="st23"></ellipse>
		<ellipse ry="61.1" rx="56.7" cy="559.2" cx="724.9" class="st23"></ellipse>
		<ellipse ry="61.1" rx="56.7" cy="394.8" cx="774.9" class="st23"></ellipse>
		<path d="M727,505.1C679.7,686.5,637.6,824,527.4,824S384.6,687.9,327.9,505.1c-52.6-169.7,89.3-318.9,199.5-318.9
			S771.6,333.6,727,505.1z" class="st24"></path>
		<ellipse ry="61.1" rx="56.7" cy="273.9" cx="371.5" class="st23"></ellipse>
		<ellipse ry="61.1" rx="56.7" cy="273.9" cx="435.3" class="st23"></ellipse>
		<ellipse ry="61.1" rx="56.7" cy="247.2" cx="491.9" class="st23"></ellipse>
		<ellipse ry="61.1" rx="56.7" cy="266.1" cx="513.2" class="st23"></ellipse>
		<ellipse ry="61.1" rx="56.7" cy="266.1" cx="574.7" class="st23"></ellipse>
		<ellipse ry="61.1" rx="56.7" cy="280.2" cx="605.3" class="st23"></ellipse>
		<ellipse ry="61.1" rx="56.7" cy="273.9" cx="645.4" class="st23"></ellipse>
		<ellipse ry="61.1" rx="56.7" cy="295.1" cx="683.2" class="st23"></ellipse>
		<ellipse ry="61.1" rx="56.7" cy="234.1" cx="683.2" class="st23"></ellipse>
		<ellipse ry="61.1" rx="56.7" cy="192.7" cx="610.6" class="st23"></ellipse>
		<ellipse ry="61.1" rx="56.7" cy="189.8" cx="545.3" class="st23"></ellipse>
		<ellipse ry="61.1" rx="56.7" cy="189.8" cx="470.7" class="st23"></ellipse>
		<ellipse ry="61.1" rx="56.7" cy="196.3" cx="388.6" class="st23"></ellipse>
		<ellipse ry="61.1" rx="56.7" cy="253.8" cx="385.7" class="st23"></ellipse>
		<ellipse ry="61.1" rx="56.7" cy="229" cx="378.6" class="st23"></ellipse>
		<ellipse ry="61.1" rx="56.7" cy="229" cx="688.1" class="st23"></ellipse>
		<path d="M547.5,677l25.7-39.6c8.8-13.6-1-31.6-17.2-31.6h-51.3c-16.3,0-26,18-17.2,31.6l25.7,39.6
			C521.2,689.4,539.4,689.4,547.5,677z" class="st13"></path>
		<path d="M596.8,721.1c0,19.7-15.1,36.8-36.9,44.5c-8.1,2.9-17.1,4.5-26.6,4.5c-9.5,0-18.5-1.6-26.6-4.5
			c-21.8-7.8-36.9-24.8-36.9-44.5c0-3.9,0.6-7.6,1.7-11.2c3.2,10.4,10.6,19.5,20.8,26.2c6.5,4.2,14,7.5,22.3,9.4
			c5.9,1.4,12.2,2.2,18.7,2.2c6.5,0,12.8-0.8,18.7-2.2c8.3-2,15.9-5.2,22.3-9.4c10.2-6.7,17.7-15.8,20.8-26.2
			C596.2,713.5,596.8,717.2,596.8,721.1z" class="st15"></path>
		<g>
			<g>
				<circle r="28" cy="449.2" cx="420.1"></circle>
				<circle r="8.8" cy="435.3" cx="409.7" class="st25"></circle>
				<circle r="5.7" cy="468" cx="426.7" class="st25"></circle>
			</g>
			<g>
				<circle r="28" cy="453.3" cx="637.5"></circle>
				<circle r="8.8" cy="439.3" cx="627" class="st25"></circle>
				<circle r="5.7" cy="472.1" cx="644.1" class="st25"></circle>
			</g>
		</g>
	</g>
</g>
<g class="st0" id="比格犬">
	<circle r="512" cy="512" cx="512" class="st26"></circle>
	<g class="st3">
		<path d="M295.4,459.1c-13.7-203.8,76-272.9,216.1-272.9s242,70.2,227.2,273.9c-7.4,101.5-48.4,193.6-86.4,262.1
			c-36.6,66-59.3,109.6-129.3,109.6c-76,0-98-23.9-136-101.8C355.1,664.3,301.7,552.8,295.4,459.1z" class="st24"></path>
		<path d="M390.4,756.6c0-44.8,56.7-157.4,126.7-157.4s126.7,112.6,126.7,157.4c0,44.8-56.7,81.2-126.7,81.2
			S390.4,801.5,390.4,756.6z" class="st8"></path>
		<path d="M382.5,216.6c-7.2,10.4-97.3,192.7-93.8,333.2c0,0-8.3,193.3-70,226.5
			c0,0-66.9,40.5-152.5-249.8c0,0-13.5-85,60.2-150.4L382.5,216.6z" class="st27" id="XMLID_5_"></path>
		<path d="M641.5,216.6c7.2,10.4,97.3,192.7,93.8,333.2c0,0,8.3,193.3,70,226.5c0,0,66.9,40.5,152.5-249.8
			c0,0,13.5-85-60.2-150.4L641.5,216.6z" class="st27"></path>
		<path d="M491.1,186.5c0,0,59.2,282.9-53.1,469.1h161.1c0,0-79-93.7-46.5-466.8L491.1,186.5z" class="st8"></path>
		<path d="M548.4,771.2l23-39.9c11.6-20.1-2.9-45.2-26.1-45.2h-46.1c-23.2,0-37.7,25.1-26.1,45.2l23,39.9
			C507.7,791.3,536.8,791.3,548.4,771.2z" class="st13"></path>
		<g>
			
				<ellipse ry="34.8" rx="37" cy="472" cx="628.1" class="st7" transform="matrix(9.741481e-02 -0.9952 0.9952 9.741481e-02 97.1904 1051.0848)"></ellipse>
			
				<ellipse ry="25.8" rx="31" cy="467.3" cx="628.5" transform="matrix(9.741481e-02 -0.9952 0.9952 9.741481e-02 102.27 1047.3104)"></ellipse>
			
				<ellipse ry="10.1" rx="12.2" cy="455.3" cx="611.5" class="st7" transform="matrix(9.741481e-02 -0.9952 0.9952 9.741481e-02 98.7997 1019.4577)"></ellipse>
			
				<ellipse ry="6.8" rx="8.1" cy="491.8" cx="637.5" class="st7" transform="matrix(9.741481e-02 -0.9952 0.9952 9.741481e-02 85.9677 1078.3461)"></ellipse>
		</g>
		<g>
			
				<ellipse ry="34.8" rx="37" cy="472" cx="399.2" class="st7" transform="matrix(9.741481e-02 -0.9952 0.9952 9.741481e-02 -109.4091 823.2761)"></ellipse>
			
				<ellipse ry="25.8" rx="31" cy="467.3" cx="399.7" transform="matrix(9.741481e-02 -0.9952 0.9952 9.741481e-02 -104.3295 819.5016)"></ellipse>
			
				<ellipse ry="10.1" rx="12.2" cy="455.3" cx="382.6" class="st7" transform="matrix(9.741481e-02 -0.9952 0.9952 9.741481e-02 -107.7998 791.6489)"></ellipse>
			
				<ellipse ry="6.8" rx="8.1" cy="491.8" cx="408.6" class="st7" transform="matrix(9.741481e-02 -0.9952 0.9952 9.741481e-02 -120.6318 850.5372)"></ellipse>
		</g>
	</g>
</g>
<g class="st0" id="罗威纳">
	<circle r="512" cy="512" cx="512" class="st28"></circle>
	<g class="st3">
		<path d="M376.1,185c-2.8-0.9-5.4-2.3-7.7-4.2c-0.2-0.2-0.4-0.3-0.6-0.5c-6.1-4.8-22.5-13.1-65-18.4
			c-14.7-1.8-29.5-0.3-43.5,4.4C224.5,178,156.6,202.2,142.5,218c0,0-56.1,17-22.9,112.9c0,0,26.6,169.7,82.7,86.3
			c0,0,42.1-124.7,118.8-146.9c0,0,98.2,22.1,89.3-31.7C403.7,198.1,385,187.7,376.1,185z" class="st29"></path>
		<path d="M647.9,185c2.8-0.9,5.4-2.3,7.7-4.2c0.2-0.2,0.4-0.3,0.6-0.5c6.3-4.9,23.4-13.6,68.7-18.8
			c12.4-1.4,25-0.1,36.9,3.8c31.1,10.3,94.6,32.6,115.5,48.8c3,2.3,6.3,4.4,9.6,6.3c13.2,7.3,44.2,33.4,17.5,110.5
			c0,0-26.6,169.7-82.7,86.3c0,0-42.1-124.7-118.8-146.9c0,0-98.2,22.1-89.3-31.7C620.3,198.1,639,187.7,647.9,185z" class="st29"></path>
		<path d="M689.8,210.4c-11.6-5.8-23-12.3-33-20.5c-31.1-25.4-81.9-42-139.3-42s-108.2,16.6-139.3,42
			c-10,8.2-21.4,14.7-33,20.5c-67,33.6-113.3,103.1-113.3,182.9v191.1c0,86,70.4,156.5,156.5,156.5h258.3
			c86,0,156.5-70.4,156.5-156.5V393.3C803.1,313.5,756.8,244.1,689.8,210.4z" class="st29"></path>
		<g>
			<path d="M424,327.1c2.9,15.9-18.8,16.9-46.3,21.9c-27.5,5-58,10.1-60.9-5.7c-2.9-15.9,35.7-37.4,63.2-42.4
				C407.4,296,421.1,311.2,424,327.1z" class="st27"></path>
			<path d="M618,327.1c-2.9,15.9,18.8,16.9,46.3,21.9c27.5,5,58,10.1,60.9-5.7c2.9-15.9-35.7-37.4-63.2-42.4
				C634.5,296,620.9,311.2,618,327.1z" class="st27"></path>
		</g>
		<path d="M739.1,517.4c-1.8,4.3-3.4,9.2-4.8,14.7c-4,15.7-19.6,25.8-35.5,22.6C675.2,550,637,532,579.4,478.1
			c-17.8-16.7-41.3-25.9-65.6-25.9h0c-24.4,0-47.9,9.3-65.6,25.9c-57.5,53.9-95.7,71.9-119.4,76.5c-15.9,3.1-31.5-6.9-35.5-22.6
			c-0.1-0.3-0.2-0.7-0.3-1c-7-26.7-44.4-28.8-54-2.9c-4.6,12.5-7.2,25.9-7.2,40v56.7c0,63.8,52.2,115.9,115.9,115.9h339.3
			c63.8,0,115.9-52.2,115.9-115.9v-56.7c0-18.9-4.6-36.7-12.7-52.5C779.5,494.3,748.2,495.2,739.1,517.4z" class="st27"></path>
		<g>
			<g>
				<circle r="23" cy="410.7" cx="377.9"></circle>
				<circle r="7.2" cy="399.3" cx="369.3" class="st25"></circle>
				<circle r="4.7" cy="426.1" cx="383.3" class="st25"></circle>
			</g>
			<g>
				<circle r="23" cy="410.7" cx="664.1"></circle>
				<circle r="7.2" cy="399.3" cx="655.4" class="st25"></circle>
				<circle r="4.7" cy="426.1" cx="669.4" class="st25"></circle>
			</g>
		</g>
		<path d="M638.1,602.4c0,50.7-57.2,66.4-121.4,66.4s-119.9-21.5-119.9-72.3s55.6-98.2,119.9-98.2
			S638.1,551.7,638.1,602.4z" class="st30"></path>
		<path d="M574.5,561.4c0,24.6-25.5,32.9-57,32.9s-57-8.2-57-32.9s25.5-44.6,57-44.6S574.5,536.8,574.5,561.4z" class="st29"></path>
		<path d="M517.5,616.4L517.5,616.4c-1.9,0-3.5-1.6-3.5-3.5v-25.8c0-1.9,1.6-3.5,3.5-3.5l0,0c1.9,0,3.5,1.6,3.5,3.5
			v25.8C521,614.8,519.4,616.4,517.5,616.4z" class="st29"></path>
		<ellipse ry="8.9" rx="32.8" cy="643.5" cx="517.5" class="st14"></ellipse>
		<g>
			<path d="M745.1,838H296.9c-19,0-34.6-15.6-34.6-34.6v-27.9c0-19,15.6-34.6,34.6-34.6h448.2
				c19,0,34.6,15.6,34.6,34.6v27.9C779.7,822.4,764.1,838,745.1,838z" class="st29"></path>
			<g>
				<defs>
					<polygon points="266.7,760.7 216.7,788.8 267.3,818.1" id="XMLID_7_"></polygon>
				</defs>
				<use style="overflow:visible;fill:#403D45;" xlink:href="#XMLID_7_"></use>
				<clipPath id="XMLID_33_">
					<use style="overflow:visible;" xlink:href="#XMLID_7_"></use>
				</clipPath>
				<polygon points="263,767.4 224.4,789.4 263,778.4" class="st31"></polygon>
			</g>
			<g>
				<defs>
					<polygon points="776.6,760.5 826.6,788.6 775.9,817.9" id="XMLID_8_"></polygon>
				</defs>
				<use style="overflow:visible;fill:#403D45;" xlink:href="#XMLID_8_"></use>
				<clipPath id="XMLID_34_">
					<use style="overflow:visible;" xlink:href="#XMLID_8_"></use>
				</clipPath>
				<polygon points="780.2,767.2 818.8,789.2 780.2,778.2" class="st32"></polygon>
			</g>
			<g>
				<defs>
					<polygon points="275.6,820.9 292.5,873.3 329.6,831.3" id="XMLID_6_"></polygon>
				</defs>
				<use style="overflow:visible;fill:#403D45;" xlink:href="#XMLID_6_"></use>
				<clipPath id="XMLID_35_">
					<use style="overflow:visible;" xlink:href="#XMLID_6_"></use>
				</clipPath>
				<polygon points="285.2,825.7 292.8,864.7 294.5,828.9" class="st33"></polygon>
			</g>
			<g>
				<defs>
					<polygon points="356.9,821.3 373.8,873.7 410.9,831.6" id="XMLID_9_"></polygon>
				</defs>
				<use style="overflow:visible;fill:#403D45;" xlink:href="#XMLID_9_"></use>
				<clipPath id="XMLID_36_">
					<use style="overflow:visible;" xlink:href="#XMLID_9_"></use>
				</clipPath>
				<polygon points="366.5,826.1 374.2,865.1 375.8,829.2" class="st34"></polygon>
			</g>
			<g>
				<defs>
					<polygon points="442.1,823.4 459,875.7 496.2,833.7" id="XMLID_10_"></polygon>
				</defs>
				<use style="overflow:visible;fill:#403D45;" xlink:href="#XMLID_10_"></use>
				<clipPath id="XMLID_37_">
					<use style="overflow:visible;" xlink:href="#XMLID_10_"></use>
				</clipPath>
				<polygon points="451.8,828.2 459.4,867.1 461.1,831.3" class="st35"></polygon>
			</g>
			<g>
				<defs>
					<polygon points="748.4,821.3 731.5,873.7 694.4,831.7" id="XMLID_13_"></polygon>
				</defs>
				<use style="overflow:visible;fill:#403D45;" xlink:href="#XMLID_13_"></use>
				<clipPath id="XMLID_38_">
					<use style="overflow:visible;" xlink:href="#XMLID_13_"></use>
				</clipPath>
				<polygon points="738.8,826.1 731.1,865.1 729.5,829.3" class="st36"></polygon>
			</g>
			<g>
				<defs>
					<polygon points="667.1,821.7 650.2,874.1 613.1,832" id="XMLID_12_"></polygon>
				</defs>
				<use style="overflow:visible;fill:#403D45;" xlink:href="#XMLID_12_"></use>
				<clipPath id="XMLID_39_">
					<use style="overflow:visible;" xlink:href="#XMLID_12_"></use>
				</clipPath>
				<polygon points="657.4,826.5 649.8,865.5 648.1,829.6" class="st37"></polygon>
			</g>
			<g>
				<defs>
					<polygon points="581.9,823.8 565,876.1 527.8,834.1" id="XMLID_11_"></polygon>
				</defs>
				<use style="overflow:visible;fill:#403D45;" xlink:href="#XMLID_11_"></use>
				<clipPath id="XMLID_40_">
					<use style="overflow:visible;" xlink:href="#XMLID_11_"></use>
				</clipPath>
				<polygon points="572.2,828.6 564.6,867.5 562.9,831.7" class="st38"></polygon>
			</g>
		</g>
	</g>
</g>
<g class="st0" id="法斗">
	<circle r="512" cy="512" cx="512" class="st14"></circle>
	<g class="st3">
		<path d="M796,499.2c0,123.9-115.9,224.3-283,224.3s-285-99.1-285-223s117.9-225.7,285-225.7S796,375.3,796,499.2z" class="st39"></path>
		<ellipse ry="200.7" rx="263.7" cy="616.3" cx="512" class="st39"></ellipse>
		<ellipse ry="136.2" rx="280.9" cy="595.7" cx="512" class="st39"></ellipse>
		<g>
			<g>
				<path d="M311.6,453.2c0,0-147.9,49.3-97.9-128.6c0,0,20.1-86.9,17.6-144.5c-0.4-9.5-2.6-18.9-6.3-27.7
					c-7.9-19-17.9-59,47.5-41.3c58.4,15.8,106.6,57.3,132.2,112.1c12.7,27.2,23.7,61.6,29,104.2l6.4,40L311.6,453.2z" class="st39"></path>
				<g>
					<path d="M327.4,361.8c-12.3,8.2-26.8,12.7-41.6,11.9c-24.2-1.3-51.6-16.4-32.3-85c0,0,12.8-55.3,11.1-91.7
						c-0.3-5.9-1.7-11.6-3.9-17c-5-12.1-11.4-37.8,31.1-25.8c35.8,10.1,65.6,35.4,81.6,69c8.3,17.4,15.6,39.6,19,67.3v0
						c2.5,15.4-4.3,30.8-17.2,39.4L327.4,361.8z" class="st14"></path>
				</g>
			</g>
			<g>
				<path d="M712.4,453.2c0,0,147.9,49.3,97.9-128.6c0,0-20.2-86.9-17.6-144.5c0.4-9.5,2.6-18.9,6.3-27.7
					c7.9-19,17.9-59-47.5-41.3c-58.4,15.8-106.6,57.3-132.2,112.1c-12.7,27.2-23.7,61.6-29,104.2l-6.4,40L712.4,453.2z" class="st39"></path>
				<g>
					<path d="M696.6,361.8c12.3,8.2,26.8,12.7,41.6,11.9c24.2-1.3,51.6-16.4,32.3-85c0,0-12.8-55.3-11.1-91.7
						c0.3-5.9,1.7-11.6,3.9-17c5-12.1,11.4-37.8-31.1-25.8c-35.8,10.1-65.6,35.4-81.6,69c-8.3,17.4-15.6,39.6-19,67.3v0
						c-2.5,15.4,4.3,30.8,17.2,39.4L696.6,361.8z" class="st14"></path>
				</g>
			</g>
		</g>
		<ellipse ry="52.5" rx="71.9" cy="718.6" cx="512" class="st40"></ellipse>
		<g>
			<g>
				<circle r="26.7" cy="513.8" cx="344.2"></circle>
				<circle r="8.4" cy="500.5" cx="334.2" class="st25"></circle>
				<circle r="5.5" cy="531.8" cx="350.5" class="st25"></circle>
			</g>
			<g>
				<circle r="26.7" cy="513.8" cx="679.8"></circle>
				<circle r="8.4" cy="500.5" cx="669.7" class="st25"></circle>
				<circle r="5.5" cy="531.8" cx="686" class="st25"></circle>
			</g>
		</g>
		<path d="M614.9,742.3c-65.3-27.9-133.9-29.2-206.7,0.7c-22.1,9.1-47.7-2.7-54.1-25.7c-1-3.6-1.6-7.5-1.6-11.4v-11.2
			c0-87.7,71.7-159.4,159.4-159.4h0c87.7,0,159.4,71.7,159.4,159.4v11.2c0,2-0.1,3.9-0.4,5.8C667.4,737.9,639.2,752.7,614.9,742.3z" class="st41"></path>
		<path d="M522.5,623.7l23.6-21.6c10.4-9.6,3.6-26.9-10.5-26.9h-47.1c-14.1,0-20.9,17.4-10.5,26.9l23.6,21.6
			C507.4,629.1,516.6,629.1,522.5,623.7z" class="st13"></path>
	</g>
</g>
<g class="st0" id="柴犬">
	<circle r="512" cy="512" cx="512" class="st42"></circle>
	<g class="st3">
		<g>
			<defs>
				<path d="M833.2,577.2c0,118-133.5,221.5-227.9,279.9c-56.5,35-126.3,35.1-183,0.5
					c-95.5-58.3-231.4-162.1-231.4-280.4c0-182.4,134.2-330.2,323-330.2S833.2,394.8,833.2,577.2z" id="XMLID_15_"></path>
			</defs>
			<use style="overflow:visible;fill:#D28957;" xlink:href="#XMLID_15_"></use>
			<clipPath id="XMLID_41_">
				<use style="overflow:visible;" xlink:href="#XMLID_15_"></use>
			</clipPath>
			<path d="M845,512.7c-17-24.5-359.1,234.8-278.6,312.7c0,0,70,61.1,80.7,63.5c10.6,2.4,52.5,64.7,93.9-14.4
				s70.7-136.6,83.6-165.4c12.9-28.8,89.6-172.6,89.6-184.6S845,512.7,845,512.7z" class="st43"></path>
			<path d="M186,512.7c17-24.5,359.1,234.8,278.6,312.7c0,0-70,61.1-80.7,63.5c-10.6,2.4-52.5,64.7-93.9-14.4
				S219.3,737.8,206.4,709s-89.6-172.6-89.6-184.6S186,512.7,186,512.7z" class="st43"></path>
			<path d="M561.2,923.5h-91.4c-36.2,0-65.8-29.6-65.8-65.8v-55.2c0-25.6,14.9-48,36.4-58.8
				c12.3-6.2,26.4-7.4,39.7-4.2c23.2,5.5,46.4,6.9,69.6,0.8c15.7-4.1,32.6-2.1,46.4,6.5c18.5,11.7,30.8,32.3,30.8,55.7v55.2
				C627,893.9,597.4,923.5,561.2,923.5z" class="st43"></path>
		</g>
		<g>
			<path d="M797.4,140.6c0,0-83.1,10.3-174.3,130.1c0,0-45.6,38.2-35.6,62c0,0,147.2,180.4,190.4,157.4
				c0,0,26.6,0.1,35-21.1c0,0,45.2-197.6,0.6-315.2C813.5,153.8,809.1,141.4,797.4,140.6z" class="st44"></path>
			<path d="M652.6,304.2c23.7,27.7,85.3,99,98.6,104.9c0,0,27.9,19.4,37.8,3.3c0,0,56-216.7,3.2-238.7
				c0,0-56.4-33-141.6,107.3C646.1,288.4,646.9,297.5,652.6,304.2z" class="st8"></path>
		</g>
		<g>
			<path d="M226.6,140.6c0,0,83.1,10.3,174.3,130.1c0,0,45.6,38.2,35.6,62c0,0-147.2,180.4-190.4,157.4
				c0,0-26.6,0.1-35-21.1c0,0-45.2-197.6-0.6-315.2C210.5,153.8,214.9,141.4,226.6,140.6z" class="st44"></path>
			<path d="M371.4,304.2c-23.7,27.7-85.3,99-98.6,104.9c0,0-27.9,19.4-37.8,3.3c0,0-56-216.7-3.2-238.7
				c0,0,56.4-33,141.6,107.3C377.9,288.4,377.1,297.5,371.4,304.2z" class="st8"></path>
		</g>
		<g>
			<defs>
				<path d="M578.4,730.8c0,25.9-63,46.9-63,46.9s-63-21-63-46.9c0-13.6,17.4-25.9,33.9-34.4c18.2-9.5,40-9.5,58.2,0
					C561.1,705,578.4,717.2,578.4,730.8z" id="XMLID_14_"></path>
			</defs>
			<use style="overflow:visible;fill:#45423E;" xlink:href="#XMLID_14_"></use>
			<clipPath id="XMLID_42_">
				<use style="overflow:visible;" xlink:href="#XMLID_14_"></use>
			</clipPath>
			<path d="M541.1,709c0,0,11.7,10.2,7.3,20.5c-4.5,10.3,13.3-1.1,8.6-12.8C552.2,705,541.1,704.5,541.1,709z" class="st45"></path>
		</g>
		<g>
			<ellipse ry="17.5" rx="30.6" cy="452.2" cx="620.6" class="st46"></ellipse>
			<ellipse ry="17.5" rx="30.6" cy="452.2" cx="406.8" class="st46"></ellipse>
		</g>
		<g>
			<circle r="33.6" cy="527.5" cx="639.5"></circle>
			<circle r="10.5" cy="510.8" cx="626.9" class="st25"></circle>
			<circle r="6.9" cy="550.1" cx="647.4" class="st25"></circle>
		</g>
		<g>
			<circle r="33.6" cy="527.5" cx="371.5"></circle>
			<circle r="10.5" cy="510.8" cx="358.9" class="st25"></circle>
			<circle r="6.9" cy="550.1" cx="379.4" class="st25"></circle>
		</g>
		<path d="M435.4,814.7c0,0,94.3,38.4,163.8-4l-66.3-9.7c-10.5-1.5-21.2-1.3-31.6,0.8L435.4,814.7z" class="st13"></path>
	</g>
</g>
<g class="st0" id="比特犬">
	<circle r="512" cy="512" cx="512" class="st47"></circle>
	<g class="st3">
		<g>
			<defs>
				<path d="M224.6,434.2c-12.9-23.3-42-73.4-63.8-95c-7.4-7.3-19.7-2.7-21.2,7.8c-6.7,46.4-28.6,165.9-71.6,128.3
					c0,0,11-281.5,157.8-273.4c0,0,67.3-11.6,155.6,38.2L239.5,435.1C235.6,440.5,227.8,440,224.6,434.2z" id="XMLID_16_"></path>
			</defs>
			<use style="overflow:visible;fill:#DA7A4A;" xlink:href="#XMLID_16_"></use>
			<clipPath id="XMLID_43_">
				<use style="overflow:visible;" xlink:href="#XMLID_16_"></use>
			</clipPath>
			<path d="M337,287.4c0,0-190-83.8-193.2,54.6l86.9,107.9L353.9,302L337,287.4z" class="st48"></path>
		</g>
		<g>
			<defs>
				<path d="M799.4,434.2c12.9-23.3,42-73.4,63.8-95c7.4-7.3,19.7-2.7,21.2,7.8c6.7,46.4,28.6,165.9,71.6,128.3
					c0,0-11-281.5-157.8-273.4c0,0-67.3-11.6-155.6,38.2l141.9,194.9C788.4,440.5,796.2,440,799.4,434.2z" id="XMLID_17_"></path>
			</defs>
			<use style="overflow:visible;fill:#DA7A4A;" xlink:href="#XMLID_17_"></use>
			<clipPath id="XMLID_44_">
				<use style="overflow:visible;" xlink:href="#XMLID_17_"></use>
			</clipPath>
			<path d="M687,287.4c0,0,190-83.8,193.2,54.6l-86.9,107.9L670.1,302L687,287.4z" class="st49"></path>
		</g>
		<g>
			<defs>
				<path d="M793.9,512.7V438c0-117.3-91.4-213.2-203.1-213.2H433.4c-111.7,0-203.1,95.9-203.1,213.2v74.6
					c0,33.9,9.7,65.5,26.3,91.9c6.7,56.7,10.5,109.5,10,156.7c0,58,69.3,84,104.3,39.1l93.6-120h95.2l93.6,120
					c35,44.9,104.3,18.9,104.3-39.1c-0.5-47.2,3.3-100,10-156.7C784.2,578.1,793.9,546.6,793.9,512.7z" id="XMLID_18_"></path>
			</defs>
			<use style="overflow:visible;fill:#DA7A4A;" xlink:href="#XMLID_18_"></use>
			<clipPath id="XMLID_45_">
				<use style="overflow:visible;" xlink:href="#XMLID_18_"></use>
			</clipPath>
			<path d="M524.4,208.6c0,0-19.2,261-148.6,290.4S224.2,764.6,224.2,764.6l-50-328.2c0,0,64.3-205.2,92.7-227.8
				c28.4-22.6,91.5-54.1,91.5-54.1L524.4,208.6z" class="st50"></path>
		</g>
		<path d="M493.4,643.4l-93.5,119.9c29.4,18.1,68.8,29.2,112.2,29.2c43.3,0,82.8-11.1,112.2-29.2l-93.5-119.9
			C521.1,631,503.1,631,493.4,643.4z" class="st51"></path>
		<path d="M533.6,562.9c-3.7-1.8-5.4-6.4-3.8-10.4c1.7-3.9,6.1-5.7,9.9-3.9c6.4,5.4,12.8,11,18.6,14.2l4.5-8.1
			c6.5-11.8-0.1-26.2-11.9-29.1c-3.5-0.9-6.9-2-10.2-3.5c-19.1-9.1-38.2-9.1-57.4,0c-3.3,1.6-6.7,2.7-10.2,3.5
			c-11.8,3-18.3,17.3-11.9,29.1l4.4,8.1c5.9-3,12.6-8.4,19.2-13.8c3.8-1.6,8.2,0.3,9.7,4.2c1.6,4-0.2,8.6-4,10.2l-19.8,8.6l2,3.7
			c17.4,31.6,60.8,31.6,78.2,0l2-3.7L533.6,562.9z" class="st13"></path>
		<g>
			<ellipse ry="29.1" rx="27.8" cy="423.5" cx="359.7"></ellipse>
			<ellipse ry="9.1" rx="8.7" cy="409" cx="349.3" class="st25"></ellipse>
			<ellipse ry="6" rx="5.7" cy="443.1" cx="366.2" class="st25"></ellipse>
		</g>
		<g>
			<ellipse ry="29.1" rx="27.8" cy="414" cx="664.4"></ellipse>
			<ellipse ry="9.1" rx="8.7" cy="399.5" cx="654" class="st25"></ellipse>
			<ellipse ry="6" rx="5.7" cy="433.6" cx="671" class="st25"></ellipse>
		</g>
	</g>
</g>
<g class="st0" id="斑点狗">
	<g>
		<defs>
			<circle r="512" cy="512" cx="512" id="XMLID_22_"></circle>
		</defs>
		<use style="display:inline;overflow:visible;fill:#D6D5CE;" xlink:href="#XMLID_22_"></use>
		<clipPath class="st3" id="XMLID_46_">
			<use style="overflow:visible;" xlink:href="#XMLID_22_"></use>
		</clipPath>
	</g>
	<g class="st3">
		<g>
			<defs>
				<path d="M276.6,475.3c-14.9-220.7,82.3-295.6,234.1-295.6s262.2,76,246.1,296.6c-8,109.9-52.5,209.7-93.6,283.9
					c-39.6,71.5-63.1,69.9-139,69.9c-82.4,0-107.2,23-148.3-61.5C341.2,697.6,283.4,576.8,276.6,475.3z" id="XMLID_20_"></path>
			</defs>
			<use style="overflow:visible;fill:#F9F6E8;" xlink:href="#XMLID_20_"></use>
			<clipPath id="XMLID_47_">
				<use style="overflow:visible;" xlink:href="#XMLID_20_"></use>
			</clipPath>
			<ellipse ry="25.3" rx="41.5" cy="498.7" cx="389.6" class="st52"></ellipse>
			<ellipse ry="41.5" rx="48.1" cy="460" cx="366.2" class="st52"></ellipse>
			<ellipse ry="29.3" rx="33.9" cy="666.7" cx="335.4" class="st52"></ellipse>
			<ellipse ry="29.3" rx="33.9" cy="525.3" cx="303.4" class="st52"></ellipse>
			<ellipse ry="29.3" rx="33.9" cy="509" cx="355.1" class="st52"></ellipse>
			<ellipse ry="20.6" rx="23.9" cy="502.7" cx="383.3" class="st52"></ellipse>
			<ellipse ry="20.6" rx="23.9" cy="415.5" cx="729.2" class="st52"></ellipse>
			<ellipse ry="29.3" rx="33.9" cy="601.8" cx="703.5" class="st52"></ellipse>
			<ellipse ry="29.3" rx="33.9" cy="569.7" cx="724.4" class="st52"></ellipse>
			<ellipse ry="29.3" rx="33.9" cy="362.2" cx="290.2" class="st52"></ellipse>
			<ellipse ry="29.3" rx="33.9" cy="179.7" cx="482.8" class="st52"></ellipse>
			<ellipse ry="29.3" rx="33.9" cy="263.3" cx="324" class="st52"></ellipse>
			<ellipse ry="29.3" rx="33.9" cy="212.3" cx="439.5" class="st52"></ellipse>
			<ellipse ry="29.3" rx="33.9" cy="459.6" cx="413.6" class="st52"></ellipse>
		</g>
		<path d="M379.5,768.4c0-48.6,64.6-116.3,140.4-116.3s134.1,67.8,134.1,116.3c0,48.6-61.4,75.9-137.2,75.9
			S379.5,816.9,379.5,768.4z" class="st53"></path>
		<g>
			<defs>
				<path d="M379,207.7c-7.1,7.1-101.2,135-112.5,241.9c0,0-26.6,145.5-81.7,163.7c0,0-60.2,23.1-102.5-206.4
					c0,0-7.6-68.2,55.3-116.7C188.7,250.7,285.6,232.3,379,207.7z" id="XMLID_19_"></path>
			</defs>
			<use style="overflow:visible;fill:#F9F6E8;" xlink:href="#XMLID_19_"></use>
			<clipPath id="XMLID_48_">
				<use style="overflow:visible;" xlink:href="#XMLID_19_"></use>
			</clipPath>
			<ellipse ry="23.8" rx="33.2" cy="429.9" cx="98.3" class="st54"></ellipse>
			<ellipse ry="23.8" rx="33.2" cy="310.8" cx="132.2" class="st54"></ellipse>
			<ellipse ry="18.6" rx="25.7" cy="396.9" cx="204.8" class="st54"></ellipse>
			<ellipse ry="18.6" rx="25.7" cy="378.8" cx="218.6" class="st54"></ellipse>
			<ellipse ry="18.6" rx="25.7" cy="378.1" cx="199.8" class="st54"></ellipse>
			<ellipse ry="18.6" rx="25.7" cy="557.9" cx="222.9" class="st54"></ellipse>
		</g>
		<g>
			<defs>
				<path d="M645,206.2c7.1,7.1,101.2,135,112.5,241.9c0,0,26.6,145.5,81.7,163.7c0,0,60.2,23.1,102.5-206.4
					c0,0,7.6-68.2-55.3-116.7C835.3,249.2,738.4,230.8,645,206.2z" id="XMLID_21_"></path>
			</defs>
			<use style="overflow:visible;fill:#F9F6E8;" xlink:href="#XMLID_21_"></use>
			<clipPath id="XMLID_49_">
				<use style="overflow:visible;" xlink:href="#XMLID_21_"></use>
			</clipPath>
			<ellipse ry="23.8" rx="33.2" cy="428.4" cx="925.7" class="st55"></ellipse>
			<ellipse ry="23.8" rx="33.2" cy="309.3" cx="891.8" class="st55"></ellipse>
			<ellipse ry="18.6" rx="25.7" cy="395.4" cx="819.2" class="st55"></ellipse>
			<ellipse ry="18.6" rx="25.7" cy="377.3" cx="805.4" class="st55"></ellipse>
			<ellipse ry="18.6" rx="25.7" cy="376.6" cx="824.2" class="st55"></ellipse>
			<ellipse ry="18.6" rx="25.7" cy="247.3" cx="679.6" class="st55"></ellipse>
			<ellipse ry="18.6" rx="25.7" cy="556.4" cx="801.1" class="st55"></ellipse>
		</g>
		<path d="M536.5,735.7l23-26c15.1-17.1,2.9-43.9-19.8-43.9h-46c-22.8,0-34.9,26.8-19.8,43.9l23,26
			C507.4,747.7,526,747.7,536.5,735.7z" class="st13"></path>
		
			<ellipse ry="28" rx="33.6" cy="480.9" cx="631.8" transform="matrix(9.741481e-02 -0.9952 0.9952 9.741481e-02 91.6437 1062.8972)"></ellipse>
		<g>
			
				<ellipse ry="11" rx="13.2" cy="467.9" cx="613.3" class="st7" transform="matrix(9.741481e-02 -0.9952 0.9952 9.741481e-02 87.8849 1032.7291)"></ellipse>
		</g>
		
			<ellipse ry="7.3" rx="8.8" cy="507.5" cx="641.5" class="st7" transform="matrix(9.741481e-02 -0.9952 0.9952 9.741481e-02 73.9862 1096.5127)"></ellipse>
		<g>
			
				<ellipse ry="28" rx="33.6" cy="480.9" cx="383.9" transform="matrix(9.741481e-02 -0.9952 0.9952 9.741481e-02 -132.1298 816.1512)"></ellipse>
			
				<ellipse ry="11" rx="13.2" cy="467.9" cx="365.4" class="st7" transform="matrix(9.741481e-02 -0.9952 0.9952 9.741481e-02 -135.8886 785.9833)"></ellipse>
			
				<ellipse ry="7.3" rx="8.8" cy="507.5" cx="393.6" class="st7" transform="matrix(9.741481e-02 -0.9952 0.9952 9.741481e-02 -149.7873 849.7668)"></ellipse>
		</g>
		
			<ellipse ry="15.9" rx="7" cy="680.2" cx="538.8" class="st7" transform="matrix(6.643342e-02 -0.9978 0.9978 6.643342e-02 -175.7422 1172.5779)"></ellipse>
		<path d="M582.5,412.6c0,0,52-41.9,115.9,0C660,407.7,621.4,407.8,582.5,412.6z" class="st13"></path>
		<path d="M324.8,412.6c0,0,52-41.9,115.9,0C402.3,407.7,363.7,407.8,324.8,412.6z" class="st13"></path>
	</g>
</g>
<g class="st0" id="八哥犬">
	<g>
		<defs>
			<circle r="512" cy="512" cx="512" id="XMLID_23_"></circle>
		</defs>
		<use style="display:inline;overflow:visible;fill:#B2E2F9;" xlink:href="#XMLID_23_"></use>
		<clipPath class="st3" id="XMLID_50_">
			<use style="overflow:visible;" xlink:href="#XMLID_23_"></use>
		</clipPath>
	</g>
	<g class="st3">
		<path d="M656.1,231.2c3.1-1,6-2.5,8.6-4.7c0.2-0.2,0.4-0.3,0.6-0.5c7-5.5,26.1-15.2,76.7-21
			c13.9-1.6,27.9-0.1,41.2,4.3c34.7,11.5,105.6,36.4,129,54.5c3.4,2.6,7,4.9,10.8,7c14.7,8.1,49.3,37.3,19.5,123.3
			c0,0-29.7,189.5-92.3,96.4c0,0-47-139.2-132.6-163.9c0,0-109.6,24.7-99.7-35.4C625.2,245.9,646.1,234.2,656.1,231.2z" class="st29"></path>
		<path d="M367.9,231.2c-3.1-1-6-2.5-8.6-4.7c-0.2-0.2-0.4-0.3-0.6-0.5c-7-5.5-26.1-15.2-76.7-21
			c-13.9-1.6-27.9-0.1-41.2,4.3c-34.7,11.5-105.6,36.4-129,54.5c-3.4,2.6-7,4.9-10.8,7c-14.7,8.1-49.3,37.3-19.5,123.3
			c0,0,29.7,189.5,92.3,96.4c0,0,47-139.2,132.6-163.9c0,0,109.6,24.7,99.7-35.4C398.8,245.9,377.9,234.2,367.9,231.2z" class="st29"></path>
		<path d="M686.2,726.2H342.6c-78.6,0-142.8-64.3-142.8-142.8v-98.2c0-129.3,105.8-235.1,235.1-235.1H594
			c129.3,0,235.1,105.8,235.1,235.1v98.2C829.1,662,764.8,726.2,686.2,726.2z" class="st8"></path>
		<g>
			<path d="M518.2,708.9l-109.4,75c-39.4,27-93.7,16.9-120.7-22.5l-6.7-9.7c-27-39.4-16.9-93.7,22.5-120.7l109.4-75
				c39.4-27,93.7-16.9,120.7,22.5l6.7,9.7C567.7,627.5,557.6,681.9,518.2,708.9z" class="st29"></path>
			<path d="M521.9,713.3l109.4,75c39.4,27,93.7,16.9,120.7-22.5l6.7-9.7c27-39.4,16.9-93.7-22.5-120.7l-109.4-75
				c-39.4-27-93.7-16.9-120.7,22.5l-6.7,9.7C472.4,632,482.5,686.3,521.9,713.3z" class="st29"></path>
			<ellipse ry="85.4" rx="121.4" cy="609.6" cx="517.9" class="st29"></ellipse>
			<path d="M487.7,687.8l-128.4,106c40.4,16,94.5,25.8,154,25.8c59.5,0,113.6-9.8,154-25.8L539,687.8
				C525.7,676.9,501,676.9,487.7,687.8z" class="st29"></path>
		</g>
		<path d="M551,711.4l-3.6,23.7c-5.7,38-31,66-56.2,62.2s-41.1-38-35.3-76l4.3-28.4c13.6,11.4,29.9,19.1,48,21.8
			C522.8,716.9,537.3,715.6,551,711.4z" class="st14"></path>
		<g>
			
				<ellipse ry="59.5" rx="80.9" cy="504.3" cx="309.8" class="st56" transform="matrix(0.8429 -0.5381 0.5381 0.8429 -222.6997 245.9063)"></ellipse>
			<circle r="42" cy="505.8" cx="313" class="st57"></circle>
			<circle r="37.4" cy="505.8" cx="313" class="st29"></circle>
			<circle r="7.9" cy="487.2" cx="298.9" class="st7"></circle>
			<circle r="7.9" cy="534.5" cx="324.3" class="st7"></circle>
		</g>
		<g>
			
				<ellipse ry="80.9" rx="59.5" cy="504.3" cx="715.8" class="st56" transform="matrix(0.5381 -0.8429 0.8429 0.5381 -94.4565 836.3195)"></ellipse>
			<circle r="42" cy="505.8" cx="712.6" class="st57"></circle>
			<circle r="37.4" cy="505.8" cx="712.6" class="st29"></circle>
			<circle r="7.9" cy="487.2" cx="726.7" class="st7"></circle>
			<circle r="7.9" cy="534.5" cx="701.2" class="st7"></circle>
		</g>
		<path d="M544.1,615.8c-4.2-2-6.1-7.2-4.2-11.6c1.9-4.4,6.8-6.4,11-4.4c7.1,6.1,14.3,12.3,20.7,15.9l5-9.1
			c7.2-13.1-0.1-29.2-13.2-32.5c-3.9-1-7.7-2.2-11.3-3.9c-21.3-10.2-42.7-10.2-64,0c-3.6,1.7-7.5,3-11.3,3.9
			c-13.2,3.3-20.5,19.4-13.2,32.5l5,9c6.6-3.3,14-9.4,21.4-15.4c4.2-1.8,9.1,0.3,10.9,4.7c1.8,4.4-0.3,9.6-4.5,11.4l-22.1,9.6
			l2.3,4.2c19.4,35.3,67.9,35.3,87.3,0l2.3-4.1L544.1,615.8z"></path>
	</g>
</g>
<g class="st0" id="吉娃娃">
	<g>
		<defs>
			<circle r="512" cy="512" cx="512" id="XMLID_29_"></circle>
		</defs>
		<use style="display:inline;overflow:visible;fill:#75F298;" xlink:href="#XMLID_29_"></use>
		<clipPath class="st3" id="XMLID_51_">
			<use style="overflow:visible;" xlink:href="#XMLID_29_"></use>
		</clipPath>
	</g>
	<g class="st3">
		<g>
			<path d="M602.7,379.8c0,0,187-200.9,292.7-187.9c0,0,43.3-1.7,10.4,132.5c0,0-4.3,173.2-57.2,196.6
				c0,0-2.6,137.7-142,123C706.6,643.9,583.6,510.5,602.7,379.8z" class="st58"></path>
			<g>
				<defs>
					<path d="M632.4,404c0,0,93-168.1,221.6-200.5c0,0,118.5-40.6-38.6,310.5c0,0-3.8,84.2-42.3,80.4
						c0,0-29.5,31.2-78.1,17.9C695,612.3,703.5,494.2,632.4,404z" id="XMLID_26_"></path>
				</defs>
				<use style="overflow:visible;fill:#E4C2DC;" xlink:href="#XMLID_26_"></use>
				<clipPath id="XMLID_52_">
					<use style="overflow:visible;" xlink:href="#XMLID_26_"></use>
				</clipPath>
				<path d="M597.3,528.8c64.2-79.7,127.2-155.8,176.5-188.8c8.1-8.6,22.1,0.2,17.8,11.2
					c-37.5,54.3-108.8,134.7-136.2,231.1c-2.4,6.2-9.9,8.7-15.6,5.2l-40.3-42.3C593.7,541.7,592.7,533.8,597.3,528.8z" class="st59"></path>
			</g>
		</g>
		<g>
			<path d="M421.3,379.8c0,0-187-200.9-292.7-187.9c0,0-43.3-1.7-10.4,132.5c0,0,4.3,173.2,57.2,196.6
				c0,0,2.6,137.7,142,123C317.4,643.9,440.4,510.5,421.3,379.8z" class="st58"></path>
			<g>
				<defs>
					<path d="M391.6,404c0,0-93-168.1-221.6-200.5c0,0-118.5-40.6,38.6,310.5c0,0,3.8,84.2,42.3,80.4
						c0,0,29.5,31.2,78.1,17.9C329,612.3,320.5,494.2,391.6,404z" id="XMLID_27_"></path>
				</defs>
				<use style="overflow:visible;fill:#E4C2DC;" xlink:href="#XMLID_27_"></use>
				<clipPath id="XMLID_53_">
					<use style="overflow:visible;" xlink:href="#XMLID_27_"></use>
				</clipPath>
				<path d="M426.7,528.8c-64.2-79.7-127.2-155.8-176.5-188.8c-8.1-8.6-22.1,0.2-17.8,11.2
					c37.5,54.3,108.8,134.7,136.2,231.1c2.4,6.2,9.9,8.7,15.6,5.2l40.3-42.3C430.3,541.7,431.3,533.8,426.7,528.8z" class="st60"></path>
			</g>
		</g>
		<g>
			<defs>
				<path d="M727.6,576.5c0,37.6-22.8,77.6-35.2,109.7c-34.5,89-95.5,146.5-184.6,146.5
					c-89.2,0-151.5-58.7-186-147.7c-12.4-32.1-33.9-71-33.9-108.6c0-141.5,98.4-239,219.9-239S727.6,434.9,727.6,576.5z" id="XMLID_28_"></path>
			</defs>
			<use style="overflow:visible;fill:#F1C28A;" xlink:href="#XMLID_28_"></use>
			<clipPath id="XMLID_54_">
				<use style="overflow:visible;" xlink:href="#XMLID_28_"></use>
			</clipPath>
			<path d="M455.3,773.2c0,0-28,0.7-20.8,11.9c7.2,11.2,11,5.4,14.7,8s2.3,4.6-3.2,11.5c-5.5,6.9-9.6,16.2-1.7,16.5
				c7.8,0.3,12.1-5.8,9.3,0c-2.9,5.8-11.6,2.9-9.3,12.4s5.5,14.4,5.5,14.4l8.9,4.9c0,0,25.7,13.6,41.9,15
				c16.2,1.4,78.2,0.9,78.2,0.9s-0.6-31.5,0-36.4c0.6-4.9,6.1-7.5,1.4-10.1c-4.6-2.6,4.9-7.8-3.5-9.2c-8.4-1.4-7.2-2.9-6.1-6.9
				c1.2-4,9.2-4.6,2.9-7.8s-8.7-2.6-4.9-8.8c3.8-6.2,5.8-11.7,1.7-12.3s-6.6-7.5-9.8-7.8s-7.2-8.1-13.6-9.8
				c-6.4-1.7-10.4-11.1-30.6-6.4s-31.2,6.1-39.5,8.1s-18.5,1.5-18.5,1.5L455.3,773.2z" class="st61"></path>
			<path d="M500,551.4l-9.8,106.1c-0.2,1.7,1.2,3.2,2.9,3.2l17,0c1.7,0,3-1.4,3-3.1l-4.6-116.1
				c-0.1-3.4-4.9-3.9-5.8-0.7l-2.3,8.5C500.2,550,500.1,550.7,500,551.4z" class="st61"></path>
			<path d="M475.8,322.4c13.8,57,20.9,116.8,22.8,178.7c0.8,6.4,10,6.3,10.8,0c4.3-69.5,9.9-134.9,22.1-178.7H475.8z" class="st61"></path>
		</g>
		<ellipse ry="11.9" rx="46.2" cy="763.7" cx="504.2" class="st62"></ellipse>
		<g>
			<g>
				<path d="M433.3,591.8c0,0-30,46.6-61,43.5c-31.1-3-51.4-54.5-51.4-54.5s30-46.6,61-43.5
					C412.9,540.3,433.3,591.8,433.3,591.8z" class="st7"></path>
				<g>
					<defs>
						
							<ellipse ry="43.9" rx="44.5" cy="584" cx="376.3" transform="matrix(9.740867e-02 -0.9952 0.9952 9.740867e-02 -241.6092 901.5965)" id="XMLID_25_"></ellipse>
					</defs>
					<use style="overflow:visible;" xlink:href="#XMLID_25_"></use>
					<clipPath id="XMLID_55_">
						<use style="overflow:visible;" xlink:href="#XMLID_25_"></use>
					</clipPath>
					<circle r="27.3" cy="584" cx="376.5" class="st63"></circle>
					
						<ellipse ry="8" rx="8.1" cy="558.1" cx="354.9" class="st64" transform="matrix(9.740867e-02 -0.9952 0.9952 9.740867e-02 -235.1159 857.006)"></ellipse>
					
						<ellipse ry="5.1" rx="5.1" cy="568.3" cx="366.6" class="st64" transform="matrix(9.740867e-02 -0.9952 0.9952 9.740867e-02 -234.7002 877.7396)"></ellipse>
				</g>
			</g>
			<g>
				<path d="M681.2,589.5c0,0-30,46.6-61,43.5c-31.1-3-51.4-54.5-51.4-54.5s30-46.6,61-43.5
					C660.8,538,681.2,589.5,681.2,589.5z" class="st7"></path>
				<g>
					<defs>
						
							<ellipse ry="43.9" rx="44.5" cy="581.7" cx="624.1" transform="matrix(9.740867e-02 -0.9952 0.9952 9.740867e-02 -15.63 1146.2413)" id="XMLID_24_"></ellipse>
					</defs>
					<use style="overflow:visible;" xlink:href="#XMLID_24_"></use>
					<clipPath id="XMLID_56_">
						<use style="overflow:visible;" xlink:href="#XMLID_24_"></use>
					</clipPath>
					<circle r="27.3" cy="581.8" cx="624.4" class="st65"></circle>
					
						<ellipse ry="8" rx="8.1" cy="555.9" cx="602.8" class="st66" transform="matrix(9.740867e-02 -0.9952 0.9952 9.740867e-02 -9.1366 1101.6509)"></ellipse>
					
						<ellipse ry="5.1" rx="5.1" cy="566" cx="614.4" class="st66" transform="matrix(9.740867e-02 -0.9952 0.9952 9.740867e-02 -8.721 1122.3844)"></ellipse>
				</g>
			</g>
		</g>
		<g>
			<path d="M628.2,756.4c0,53.1-124,0-124,0s-124,53.1-124,0s55.5-96.1,124-96.1S628.2,703.3,628.2,756.4z" class="st7"></path>
			<path d="M522.6,733l20.6-35.8c8.1-14.2-2.1-31.8-18.4-31.8h-41.1c-16.3,0-26.5,17.7-18.4,31.8l20.6,35.8
				C494,747.2,514.5,747.2,522.6,733z"></path>
		</g>
		<g>
			<path d="M341.5,505.8c0,0,66.6-13.4,90.9,25.1C432.4,530.9,421.6,485.6,341.5,505.8z" class="st67"></path>
			<path d="M666.9,505.8c0,0-66.6-13.4-90.9,25.1C576,530.9,586.8,485.6,666.9,505.8z" class="st67"></path>
		</g>
	</g>
</g>
</svg>
