<?xml version="1.0" standalone="no"?><!DOCTYPE svg PUBLIC "-//W3C//DTD SVG 1.1//EN" "http://www.w3.org/Graphics/SVG/1.1/DTD/svg11.dtd"><svg t="1676964937764" class="icon" viewBox="0 0 1024 1024" version="1.1" xmlns="http://www.w3.org/2000/svg" p-id="20387" xmlns:xlink="http://www.w3.org/1999/xlink" width="200" height="200"><path d="M11.2 603.2l248 195.2L488 512 134.4 374.4 11.2 603.2z" fill="#FC801D" p-id="20388"></path><path d="M544 208l168 433.6 312-368L705.6 16 544 208z" fill="#535ADD" p-id="20389"></path><path d="M1024 273.6l-19.2 592L611.2 1024l-236.8-153.6L720 512l304-238.4z" fill="#2B50AA" p-id="20390"></path><path d="M785.6 400l-552 83.2L0 404.8 148.8 0l320 38.4L785.6 400z" fill="#9A37C5" p-id="20391"></path><path d="M785.6 400L496 864 83.2 998.4 148.8 768l84.8-284.8L785.6 400z" fill="#F32A63" p-id="20392"></path><path d="M192 832h640V192H192v640z" p-id="20393"></path><path d="M256 752h240v-40H256V752zM417.44 507.84l38.56-43.04a68.96 68.96 0 0 0 51.04 28c23.04 0 41.76-14.08 41.76-46.24V272H608v177.28a101.92 101.92 0 0 1-26.56 74.56 100 100 0 0 1-72.64 25.76 114.24 114.24 0 0 1-91.36-41.76M384 321.12V272h-128v49.12h35.84v172H256V544h128v-50.88h-35.84V321.12H384z" fill="#FFFFFF" p-id="20394"></path></svg>